# xmcd
#
# Track frame offsets:
#	182
#	12842
#	25617
#	37170
#	50040
#	62970
#	75175
#	90697
#	102460
#	112002
#	125945
#	137135
#
# Disc length: 1970
#
# Revision: 3
# Processed by: cddbd v1.5.1PL0 Copyright (c) Steve Scherf et al.
# Submitted via: CDValet v3.01 - Copyright (c) 1997 Greg Leichner
# Normalized: r1:DSETVAR1,TSWAP
#
DISCID=a607b00c
DTITLE=Various Artist - IN THE MIDNIGHT HOUR - Disc 1
DYEAR=1900
DGENRE=
TTITLE0=Bob and Earl - Harlem Shuffle
TTITLE1=Impressions - It's Alright
TTITLE2=The Isley brothers - Twist and Shout
TTITLE3=Tommy Tucker - Hi-Heel Sneekers
TTITLE4=Booker T and The M G's - Green Onions
TTITLE5=The Drifters - Under The Boardwalk
TTITLE6=Chuck Jackson - Any Day Now
TTITLE7=Nina Simone - I Put A Spell On You
TTITLE8=James Brown - Papa's Got A Brand New Bag
TTITLE9=Eddie Floyd - Knock On Wood
TTITLE10=Aretha Franklin - Respect
TTITLE11=Arthur Conley - Sweet Soul Music
EXTD=
EXTT0=
EXTT1=
EXTT2=
EXTT3=
EXTT4=
EXTT5=
EXTT6=
EXTT7=
EXTT8=
EXTT9=
EXTT10=
EXTT11=
PLAYORDER=
